FFmpeg version SVN-r25716, Copyright (c) 2000-2010 the FFmpeg developers  built on Nov 10 2010 12:23:18 with gcc 4.1.2 20080704 (Red Hat 4.1.2-48)  configuration: --enable-libmp3lame --enable-shared --disable-mmx --arch=x86_64  libavutil     50.33. 0 / 50.33. 0  libavcore      0.12. 1 /  0.12. 1  libavcodec    52.94. 4 / 52.94. 4  libavformat   52.84. 0 / 52.84. 0  libavdevice   52. 2. 2 / 52. 2. 2  libavfilter    1.59. 0 /  1.59. 0  libswscale     0.12. 0 /  0.12. 0Input #0, avi, from '/RAID10/data/converted_video_files/47560.avi':  Duration: 00:00:04.46, start: 0.000000, bitrate: 31533 kb/s    Stream #0.0: Video: msvideo1, rgb555le, 1024x1024, 30 tbr, 30 tbn, 30 tbc[buffer @ 0x19369690] w:1024 h:1024 pixfmt:rgb555le[ffsink @ 0x19369900] auto-inserting filter 'auto-inserted scaler 0' between the filter 'src' and the filter 'out'[scale @ 0x19368810] w:1024 h:1024 fmt:rgb555le -> w:1024 h:1024 fmt:yuv420p flags:0x4Output #0, flv, to '/RAID10/data/converted_video_files/47560.flv':  Metadata:    encoder         : Lavf52.84.0    Stream #0.0: Video: flv, yuv420p, 1024x1024, q=2-31, 600 kb/s, 1k tbn, 24 tbcStream mapping:  Stream #0.0 -> #0.0Press [q] to stop encodingframe=    6 fps=  0 q=6.1 size=     372kB time=0.25 bitrate=12188.3kbits/s dup=0 drop=1    frame=    9 fps=  8 q=14.5 size=     397kB time=0.38 bitrate=8667.9kbits/s dup=0 drop=2    frame=   18 fps= 10 q=31.0 size=     433kB time=0.75 bitrate=4727.4kbits/s dup=0 drop=4    frame=   26 fps= 12 q=31.0 size=     464kB time=1.08 bitrate=3513.5kbits/s dup=0 drop=6    frame=   32 fps= 12 q=31.0 size=     469kB time=1.33 bitrate=2880.5kbits/s dup=0 drop=8    frame=   39 fps= 12 q=31.0 size=     500kB time=1.62 bitrate=2519.5kbits/s dup=0 drop=9    frame=   45 fps= 12 q=31.0 size=     504kB time=1.88 bitrate=2199.8kbits/s dup=0 drop=11    frame=   55 fps= 13 q=31.0 size=     537kB time=2.29 bitrate=1918.2kbits/s dup=0 drop=13    frame=   62 fps= 13 q=31.0 size=     568kB time=2.58 bitrate=1800.1kbits/s dup=0 drop=15    frame=   70 fps= 13 q=31.0 size=     573kB time=2.92 bitrate=1610.1kbits/s dup=0 drop=17    frame=   79 fps= 13 q=31.0 size=     606kB time=3.29 bitrate=1507.2kbits/s dup=0 drop=19    frame=   85 fps= 13 q=24.8 size=     636kB time=3.54 bitrate=1470.9kbits/s dup=0 drop=21    frame=   94 fps= 13 q=29.0 size=     641kB time=3.92 bitrate=1341.5kbits/s dup=0 drop=23    frame=  100 fps= 13 q=31.0 size=     672kB time=4.17 bitrate=1321.0kbits/s dup=0 drop=25    frame=  106 fps= 13 q=30.1 size=     676kB time=4.42 bitrate=1253.3kbits/s dup=0 drop=26    frame=  107 fps= 13 q=28.8 Lsize=     676kB time=4.46 bitrate=1243.1kbits/s dup=0 drop=27    video:675kB audio:0kB global headers:0kB muxing overhead 0.278240%